<svg width="60" height="60" viewBox="0 0 60 60" fill="none" xmlns="http://www.w3.org/2000/svg">
	<path
		d="M16.6094 0.830078H45.0674C46.499 0.830078 47.8725 1.39883 48.8848 2.41113L56.9658 10.4932C57.978 11.5054 58.5468 12.8781 58.5469 14.3096V53.7715C58.5469 56.7525 56.1304 59.1697 53.1494 59.1699H16.6094C13.6282 59.1699 11.2109 56.7527 11.2109 53.7715V6.22852C11.2109 3.24732 13.6282 0.830078 16.6094 0.830078Z"
		stroke="#5F5F5F" stroke-width="1.6609" />
	<rect y="31.8684" width="36.1246" height="19.0359" rx="2.95456" fill="#E31C1C" />
	<path
		d="M2.95508 47.7449V35.0772C2.95508 34.991 2.99201 34.9418 3.07818 34.9418C3.28747 34.9418 3.48444 34.9418 3.76758 34.9295C4.05073 34.9172 4.3708 34.9172 4.70319 34.9049C5.03558 34.8925 5.39259 34.8925 5.77422 34.8802C6.15585 34.8679 6.52517 34.8679 6.89449 34.8679C7.90396 34.8679 8.74108 34.991 9.43048 35.2495C10.0485 35.4594 10.612 35.8043 11.0801 36.259C11.4768 36.657 11.7833 37.1356 11.9788 37.6624C12.1651 38.1755 12.2609 38.717 12.2619 39.2628C12.2619 40.3215 12.0157 41.1956 11.5233 41.885C11.0286 42.5734 10.3379 43.0968 9.54128 43.3869C8.70415 43.6947 7.78085 43.8055 6.77138 43.8055C6.47592 43.8055 6.27895 43.8055 6.15585 43.7931C6.03274 43.7808 5.86039 43.7808 5.62649 43.7808V47.7325C5.62924 47.7528 5.62789 47.7734 5.62252 47.7931C5.61716 47.8129 5.60789 47.8313 5.59526 47.8474C5.58263 47.8635 5.5669 47.8768 5.549 47.8867C5.5311 47.8966 5.5114 47.9028 5.49107 47.9049H3.10281C3.00432 47.9049 2.95508 47.8557 2.95508 47.7449ZM5.6388 37.3177V41.4541C5.81115 41.4664 5.97119 41.4787 6.11891 41.4787H6.77138C7.25197 41.4793 7.72968 41.4045 8.1871 41.2571C8.57956 41.1417 8.93018 40.9151 9.19658 40.6047C9.4551 40.2969 9.57821 39.8784 9.57821 39.3367C9.58979 38.952 9.49158 38.572 9.29506 38.241C9.0898 37.9214 8.78791 37.6756 8.43332 37.5393C7.97116 37.3583 7.47665 37.2745 6.98066 37.2931C6.66058 37.2931 6.37744 37.2931 6.14354 37.3054C5.97526 37.2944 5.80634 37.2985 5.6388 37.3177Z"
		fill="white" />
	<path
		d="M13.2468 47.6832V35.0771C13.2432 35.0397 13.2539 35.0024 13.2767 34.9727C13.2996 34.943 13.3329 34.9231 13.3699 34.917H13.3822C13.5669 34.9047 13.85 34.8924 14.207 34.8924C14.564 34.8924 14.9949 34.8801 15.4873 34.8678C15.9797 34.8555 16.4968 34.8555 17.0508 34.8555C18.5527 34.8555 19.8084 35.1263 20.7932 35.668C21.741 36.1726 22.5168 36.9484 23.0214 37.8962C23.5139 38.8441 23.7601 39.9275 23.7601 41.1585C23.7758 42.0152 23.6468 42.8685 23.3785 43.6822C23.1438 44.3733 22.785 45.0158 22.3197 45.578C21.8869 46.0935 21.376 46.538 20.8055 46.8953C20.2434 47.2408 19.6337 47.5021 18.9959 47.6709C18.3769 47.8329 17.7398 47.9156 17.1 47.9171H15.7089C15.2165 47.9171 14.7487 47.9171 14.3301 47.9048C13.9116 47.8924 13.5792 47.8924 13.3699 47.8801C13.2837 47.8801 13.2468 47.8063 13.2468 47.6832ZM15.8443 37.293V45.5042C15.9797 45.5042 16.1029 45.5042 16.226 45.5165C16.3491 45.5288 16.4599 45.5288 16.5707 45.5411C16.6815 45.5534 16.8292 45.5534 16.9769 45.5534C17.5477 45.5636 18.1154 45.4676 18.6512 45.2703C19.142 45.0969 19.5849 44.8101 19.9438 44.4332C20.3123 44.0412 20.5935 43.5754 20.7686 43.0667C20.9654 42.4709 21.0651 41.8475 21.064 41.2201C21.0753 40.6291 20.9794 40.041 20.7809 39.4843C20.6111 39.01 20.332 38.5824 19.9663 38.2359C19.6006 37.8895 19.1585 37.6339 18.6758 37.4899C18.1499 37.3263 17.6014 37.2473 17.0508 37.256C16.8046 37.256 16.5953 37.256 16.4229 37.2684C16.2506 37.2807 16.0536 37.2807 15.8443 37.293Z"
		fill="white" />
	<path
		d="M27.4904 42.937V47.7874C27.4933 47.8061 27.4924 47.8252 27.4877 47.8435C27.4831 47.8618 27.4747 47.8789 27.4632 47.8939C27.4517 47.9089 27.4372 47.9214 27.4207 47.9306C27.4042 47.9398 27.386 47.9455 27.3673 47.9475H24.8928C24.8706 47.9518 24.8476 47.9499 24.8263 47.942C24.8051 47.9341 24.7864 47.9205 24.7724 47.9027C24.7584 47.8849 24.7496 47.8635 24.7469 47.841C24.7443 47.8185 24.7479 47.7957 24.7574 47.7751V35.1075C24.7574 34.9228 24.8066 34.8243 24.8928 34.8243H32.747C32.7936 34.8195 32.8405 34.828 32.8824 34.8489C32.9259 34.9324 32.9471 35.0257 32.944 35.1198L33.1656 37.2741C33.1707 37.2932 33.1711 37.3133 33.1668 37.3325C33.1625 37.3518 33.1536 37.3698 33.141 37.3849C33.1079 37.4168 33.0637 37.4344 33.0178 37.4342H27.4904V40.4503H32.4392C32.5623 40.4503 32.6116 40.4995 32.6116 40.5857V42.7647C32.6145 42.7833 32.6136 42.8024 32.609 42.8207C32.6043 42.839 32.596 42.8562 32.5844 42.8712C32.5729 42.8861 32.5585 42.8986 32.542 42.9078C32.5255 42.917 32.5073 42.9228 32.4885 42.9247H32.4516L27.4904 42.937Z"
		fill="white" />
</svg>