<svg width="34" height="34" viewBox="0 0 34 34" fill="none" xmlns="http://www.w3.org/2000/svg">
	<path d="M11.7916 6L8.95825 10.25M21.7082 6L24.5416 10.25" stroke="#0041B3" stroke-linecap="round" />
	<path
		d="M28.5 12.375C29.0523 12.375 29.5 12.8227 29.5 13.375V14.208C29.5 14.7603 29.0523 15.208 28.5 15.208H27.4473C26.9885 15.2081 26.5888 15.5207 26.4775 15.9658L24.2119 25.0264C23.9893 25.9167 23.1892 26.542 22.2715 26.542H11.2285C10.3108 26.542 9.51067 25.9167 9.28809 25.0264L7.02246 15.9658C6.91117 15.5207 6.51152 15.2081 6.05273 15.208H5C4.44772 15.208 4 14.7603 4 14.208V13.375C4 12.8227 4.44772 12.375 5 12.375H28.5ZM13.6836 17.1748C13.5963 16.913 13.3126 16.7714 13.0508 16.8584C12.7888 16.9457 12.6471 17.2292 12.7344 17.4912L14.1514 21.7412C14.2388 22.003 14.5223 22.1449 14.7842 22.0576C15.0456 21.97 15.1868 21.6865 15.0996 21.4248L13.6836 17.1748ZM20.4502 16.8584C20.1884 16.7713 19.9058 16.9131 19.8184 17.1748L18.4014 21.4248C18.314 21.6868 18.4558 21.9703 18.7178 22.0576C18.9795 22.1444 19.2623 22.0028 19.3496 21.7412L20.7666 17.4912C20.8538 17.2294 20.7118 16.9459 20.4502 16.8584Z"
		fill="#0041B3" />
</svg>