<svg width="24" height="24" viewBox="0 0 24 24" fill="none" xmlns="http://www.w3.org/2000/svg">
	<path
		d="M12 3C16.9706 3 21 7.02944 21 12C21 16.9706 16.9706 21 12 21C7.02944 21 3 16.9706 3 12C3 7.02944 7.02944 3 12 3ZM16.3203 8.61621C16.1083 8.43951 15.793 8.46782 15.6162 8.67969L10.9658 14.2588L8.35352 11.6465C8.15826 11.4512 7.84175 11.4512 7.64648 11.6465C7.45122 11.8417 7.45122 12.1583 7.64648 12.3535L11.0332 15.7402L16.3838 9.32031C16.5605 9.10828 16.5322 8.79304 16.3203 8.61621Z"
		fill="#0041B3" />
	<circle cx="12" cy="12" r="9" stroke="#0041B3" />
</svg>