<svg width="24" height="24" viewBox="0 0 24 24" fill="none" xmlns="http://www.w3.org/2000/svg">
	<path
		d="M10.875 3C15.2242 3 18.75 6.52576 18.75 10.875C18.75 15.2242 15.2242 18.75 10.875 18.75C6.52576 18.75 3 15.2242 3 10.875C3 6.52576 6.52576 3 10.875 3ZM10.875 5.375C10.1528 5.375 9.43776 5.51758 8.77051 5.79395C8.10322 6.07035 7.49705 6.47561 6.98633 6.98633C6.47561 7.49705 6.07035 8.10322 5.79395 8.77051C5.51758 9.43776 5.375 10.1528 5.375 10.875C5.375 11.4273 5.82272 11.875 6.375 11.875C6.92728 11.875 7.375 11.4273 7.375 10.875C7.375 10.4154 7.46571 9.9598 7.6416 9.53516C7.81749 9.11069 8.0755 8.72528 8.40039 8.40039C8.72528 8.0755 9.11069 7.81749 9.53516 7.6416C9.9598 7.46571 10.4154 7.375 10.875 7.375C11.4273 7.375 11.875 6.92728 11.875 6.375C11.875 5.82272 11.4273 5.375 10.875 5.375Z"
		fill="#0041B3" />
	<path d="M21 21L19 19" stroke="#0041B3" stroke-width="2" stroke-linecap="round" />
</svg>